<svg id="Layer_1" data-name="Layer 1" xmlns="http://www.w3.org/2000/svg" xmlns:xlink="http://www.w3.org/1999/xlink" viewBox="0 0 499.5 499.51"><defs><style>.cls-1{fill:url(#linear-gradient);}.cls-2{fill:url(#linear-gradient-2);}.cls-3{fill:url(#linear-gradient-3);}.cls-4{fill:url(#linear-gradient-4);}</style><linearGradient id="linear-gradient" x1="311.88" y1="187.63" x2="438.12" y2="61.38" gradientUnits="userSpaceOnUse"><stop offset="0" stop-color="#f0f"/><stop offset="1" stop-color="aqua"/></linearGradient><linearGradient id="linear-gradient-2" x1="61.88" y1="188.13" x2="188.13" y2="61.88" gradientTransform="translate(-0.5 249.51) rotate(-90)" xlink:href="#linear-gradient"/><linearGradient id="linear-gradient-3" x1="729.88" y1="30.13" x2="856.13" y2="-96.12" gradientTransform="translate(917.51 342) rotate(180)" xlink:href="#linear-gradient"/><linearGradient id="linear-gradient-4" x1="219.88" y1="606.13" x2="346.13" y2="479.88" gradientTransform="translate(918 92) rotate(90)" xlink:href="#linear-gradient"/></defs><title>background-tile</title><polygon class="cls-1" points="376.75 249.5 373.75 249.5 373.75 126 250 125.75 250 122.76 373.75 123 373.75 0 376.75 0 376.75 123.01 499.5 123.26 499.5 126.25 376.75 126 376.75 249.5"/><polygon class="cls-2" points="249.5 122.76 249.5 125.75 126 125.75 125.75 249.51 122.75 249.5 123 125.75 0 125.75 0 122.76 123.01 122.76 123.25 0 126.25 0.01 126 122.76 249.5 122.76"/><polygon class="cls-3" points="122.76 250 125.75 250 125.75 373.51 249.51 373.75 249.5 376.75 125.75 376.5 125.75 499.5 122.76 499.5 122.76 376.5 0 376.25 0.01 373.26 122.76 373.5 122.76 250"/><polygon class="cls-4" points="250 376.75 250 373.75 373.51 373.75 373.75 250 376.75 250.01 376.5 373.75 499.5 373.75 499.5 376.75 376.5 376.75 376.25 499.51 373.26 499.5 373.5 376.75 250 376.75"/></svg>