<svg id="Layer_1" data-name="Layer 1" xmlns="http://www.w3.org/2000/svg" xmlns:xlink="http://www.w3.org/1999/xlink" viewBox="0 0 916.23 696.38"><defs><style>.cls-1,.cls-2{fill:none;}.cls-2,.cls-3{stroke:#00b1ff;stroke-miterlimit:10;stroke-width:2px;}.cls-3{fill:#fff;}.cls-4{stroke:#3fa9f5;stroke-width:3px;fill:url(#Retro-mesh_4);}.cls-5{fill:red;}.cls-5,.cls-6{opacity:0.8;}.cls-6{fill:#12c433;}</style><pattern id="Retro-mesh_4" data-name="Retro-mesh 4" width="500" height="500.83" patternTransform="translate(22.8 27.46) scale(0.1)" patternUnits="userSpaceOnUse" viewBox="0 0 500 500.83"><rect class="cls-1" width="500" height="500.83"/><polygon class="cls-2" points="1000 501.24 1000 1001.24 750 751.24 500 501.24 500 1001.24 1000 501.24"/><polygon class="cls-2" points="500 501.24 500 1001.24 250 751.24 0 501.24 0 1001.24 500 501.24"/><polygon class="cls-2" points="0 501.24 0 1001.24 -250 751.24 -500 501.24 -500 1001.24 0 501.24"/><polygon class="cls-2" points="1000 0.41 1000 500.41 750 250.41 500 0.41 500 500.41 1000 0.41"/><polygon class="cls-2" points="500 0.41 500 500.41 250 250.41 0 0.41 0 500.41 500 0.41"/><polyline class="cls-3" points="250 0.41 250 250.41 250 500.41"/><polygon class="cls-2" points="0 0.41 0 500.41 -250 250.41 -500 0.41 -500 500.41 0 0.41"/><polygon class="cls-2" points="1000 -500.41 1000 -0.41 750 -250.41 500 -500.41 500 -0.41 1000 -500.41"/><polygon class="cls-2" points="500 -500.41 500 -0.41 250 -250.41 0 -500.41 0 -0.41 500 -500.41"/><polygon class="cls-2" points="0 -500.41 0 -0.41 -250 -250.41 -500 -500.41 -500 -0.41 0 -500.41"/></pattern></defs><title>finger_thumb_up</title><path class="cls-4" d="M2.81,373.2s4.81-1.92,13.94-13c0,0,4.81-35.08,71.13-99,0,0,87.33-91.42,112.46-98.53,22.95-6.49,76.69-42.9,96.9-56.95a53.71,53.71,0,0,0,14.45-14.95c8-12.39,22.69-37.68,40.05-80A14,14,0,0,1,365.67.5S414.21-.23,406,107.9c0,0-12,57.68-42.29,72.09s-52.87,45.18-52.87,45.18L372.4,244.4s58.51,9.62,114.87,13.45c9.09.62,221.56,5.77,318.16,44.7,0,0,43.73,23.55,13.46,59.59,0,0,95.64-12.49,94.68,48.55,0,0,4.32,28.83-30.76,36.52,0,0-121.16,2.78-188.88,0-86.12-3.53-201.86-1.44-220.12,10.58h0s14.85,33,5.32,61.52a43.75,43.75,0,0,1-34.65,29.12c-5.56.89-12.8,1.82-22.1,2.59,0,0-4.32,63.92-50,73.54,0,0-5.77,3.36-33.64-2.41,0,0-1,6.73-13.94,6.25,0,0-53,9.34-98.47,9.65a199.56,199.56,0,0,1-47.19-5.48c-21.18-5-60.79-12.89-78.3-7.05,0,0-92.84,61-98,68.24S2.81,373.2,2.81,373.2Z" transform="translate(1 1)"/><path class="cls-5" d="M393,121.84c5.76-12.9,16.5-45,.33-79.21-1.09-2.31-4-1.61-4.29,1-1.78,15-5,49.78-.35,77.41C389.13,123.65,392,124.15,393,121.84Z" transform="translate(1 1)"/><path class="cls-6" d="M891.86,436c9.48-8.85,27.14-30.87.55-54.37-1.8-1.59-6.54-1.11-7.06.7-2.92,10.28-8.16,34.18-.58,53.15C885.48,437.23,890.16,437.57,891.86,436Z" transform="translate(1 1)"/></svg>